<svg width="24" height="24" viewBox="0 0 24 24" fill="none" xmlns="http://www.w3.org/2000/svg">
<path fill-rule="evenodd" clip-rule="evenodd" d="M7.49062 6.28938C7.32507 6.28885 7.16014 6.30986 7 6.35188V6.37375H7.02375C7.13844 6.54689 7.26632 6.71091 7.40625 6.86438C7.5025 7.05563 7.58625 7.24625 7.68187 7.4375C7.69375 7.42563 7.70562 7.41313 7.70562 7.41313C7.79441 7.34265 7.8639 7.25083 7.90762 7.14625C7.95133 7.04166 7.96785 6.9277 7.95562 6.815C7.90328 6.73429 7.8553 6.65084 7.81187 6.565C7.74 6.44563 7.58437 6.38563 7.48875 6.29" fill="#5D87A1"/>
<path fill-rule="evenodd" clip-rule="evenodd" d="M19.3625 16.7194C18.5741 16.664 17.783 16.7783 17.0425 17.0544C16.8631 17.1263 16.5769 17.1263 16.5519 17.3532C16.6481 17.4488 16.6594 17.6032 16.7438 17.7363C16.9075 18.0134 17.1179 18.2602 17.3656 18.4657C17.6156 18.6569 17.8656 18.8475 18.1313 19.015C18.5969 19.3032 19.1238 19.47 19.5775 19.7569C19.8413 19.9244 20.1038 20.1394 20.3675 20.3194C20.4988 20.415 20.5819 20.5694 20.7494 20.6319V20.5957C20.7002 20.4628 20.6393 20.3346 20.5675 20.2125C20.4481 20.0938 20.3281 19.9857 20.2081 19.8663C19.8576 19.4027 19.4381 18.9955 18.9644 18.6588C18.5813 18.395 17.7438 18.0338 17.5894 17.5963L17.565 17.5719C17.8454 17.5322 18.1216 17.4678 18.3906 17.3794C18.7969 17.2719 19.1675 17.2963 19.5856 17.1919C19.7775 17.1438 20.1244 17.0244 20.1244 17.0244V16.8369C19.9106 16.6244 19.7575 16.34 19.5325 16.1394C18.9204 15.6051 18.268 15.1186 17.5813 14.6844C17.2144 14.4475 16.7413 14.295 16.3506 14.0932C16.2094 14.0219 15.9756 13.9869 15.89 13.8682C15.6957 13.5831 15.5331 13.2778 15.405 12.9575C15.0625 12.3075 14.7306 11.5869 14.4356 10.8994C14.261 10.4387 14.0596 9.98853 13.8325 9.55129C12.7365 7.68783 11.1544 6.15742 9.25564 5.12379C8.77654 4.89189 8.26716 4.72862 7.74252 4.63879C7.44627 4.62629 7.15127 4.60317 6.85564 4.59192C6.6648 4.46689 6.48329 4.3282 6.31252 4.17692C5.63627 3.74879 3.89877 2.82879 3.40127 4.04692C3.08252 4.81629 3.87502 5.57254 4.14689 5.96317C4.37614 6.23859 4.57812 6.53561 4.75002 6.85004C4.83314 7.05129 4.85689 7.26442 4.93752 7.47504C5.11101 8.01573 5.31701 8.54545 5.55439 9.06129C5.68135 9.31624 5.82761 9.56112 5.99189 9.79379C6.08752 9.92442 6.25252 9.98129 6.28814 10.1969C6.15707 10.4786 6.06538 10.7771 6.01564 11.0838C5.80904 11.7362 5.73301 12.423 5.79188 13.1048C5.85076 13.7866 6.04339 14.4502 6.35877 15.0575C6.54627 15.3532 6.99752 16.0038 7.60064 15.755C8.13252 15.5425 8.01439 14.8682 8.16814 14.2775C8.20314 14.1344 8.18002 14.0407 8.25064 13.9463V14.0613C8.25064 14.0613 8.55252 14.7244 8.70252 15.0613C9.11044 15.6794 9.6172 16.2263 10.2025 16.68C10.434 16.8822 10.6206 17.1307 10.75 17.4094V17.6238H11.0169C11.0113 17.5271 10.9845 17.4329 10.9384 17.3478C10.8923 17.2626 10.828 17.1887 10.75 17.1313C10.5312 16.906 10.3307 16.6636 10.1506 16.4063C9.66142 15.7095 9.22999 14.974 8.86064 14.2069C8.67314 13.8319 8.51502 13.4207 8.36502 13.0463C8.29627 12.9019 8.29627 12.6838 8.18064 12.6088C7.96714 12.8614 7.78187 13.1366 7.62814 13.4294C7.44151 14.0213 7.33289 14.635 7.30502 15.255C7.25939 15.2675 7.28189 15.255 7.25939 15.2788C6.89127 15.1819 6.76439 14.7838 6.62564 14.4463C6.26721 13.4054 6.23105 12.2806 6.52189 11.2188C6.60189 10.9657 6.94877 10.1682 6.81002 9.92629C6.74064 9.69567 6.51002 9.56379 6.38377 9.38192C6.22259 9.13724 6.0839 8.87848 5.96939 8.60879C5.69502 7.93629 5.55627 7.18629 5.25752 6.50879C5.09214 6.18295 4.89958 5.87164 4.68189 5.57817C4.44109 5.285 4.22868 4.96963 4.04752 4.63629C3.99002 4.50317 3.90939 4.28567 4.00127 4.14067C4.00747 4.10039 4.02662 4.06323 4.05583 4.03481C4.08504 4.00639 4.12271 3.98826 4.16314 3.98317C4.31189 3.85067 4.73877 4.01942 4.88814 4.09192C5.28961 4.24997 5.67202 4.4527 6.02814 4.69629C6.18939 4.81754 6.56939 5.12442 6.56939 5.12442H6.68189C7.06439 5.20754 7.49439 5.14754 7.85439 5.25567C8.46053 5.45772 9.03899 5.73488 9.57627 6.08067C11.1598 7.09014 12.4472 8.50171 13.3069 10.1713C13.4506 10.4457 13.5113 10.6975 13.6425 10.9838C13.8925 11.5713 14.205 12.1713 14.455 12.7425C14.6756 13.3077 14.9608 13.8455 15.305 14.345C15.4838 14.595 16.2019 14.7275 16.525 14.8588C16.8056 14.9559 17.081 15.0675 17.35 15.1932C17.7569 15.4432 18.1625 15.7313 18.5456 16.0057C18.7363 16.1494 19.3344 16.4482 19.3706 16.6875" fill="#00758F"/>
</svg>
