<svg width="134" height="134" viewBox="0 0 134 134" fill="none" xmlns="http://www.w3.org/2000/svg">
<path d="M129.052 14.8205L101.656 1.63128C100.109 0.885339 98.3685 0.639178 96.6752 0.92692C94.9819 1.21466 93.4201 2.02205 92.2063 3.23717L2.5283 84.995C1.44024 85.9823 0.788931 87.3614 0.717651 88.8289C0.64637 90.2964 1.16095 91.7321 2.1482 92.8202C2.26698 92.9485 2.38576 93.072 2.51404 93.186L9.83557 99.8376C10.7923 100.708 12.0237 101.216 13.3161 101.274C14.6084 101.331 15.88 100.934 16.91 100.151L124.928 18.2413C125.743 17.6222 126.716 17.2431 127.736 17.1467C128.755 17.0503 129.782 17.2405 130.699 17.6957C131.616 18.151 132.389 18.8533 132.928 19.7236C133.468 20.5939 133.755 21.5977 133.755 22.6219V22.3035C133.755 20.7399 133.314 19.2081 132.481 17.8843C131.649 16.5605 130.46 15.4985 129.052 14.8205Z" fill="#0065A9"/>
<path d="M129.052 119.061L101.656 132.255C100.109 132.999 98.3685 133.244 96.6757 132.956C94.983 132.668 93.4213 131.862 92.2063 130.649L2.5283 48.8863C1.44024 47.899 0.788931 46.5199 0.717651 45.0524C0.64637 43.5849 1.16095 42.1492 2.1482 41.0611C2.26698 40.9328 2.38576 40.8093 2.51404 40.6953L9.83557 34.0437C10.7932 33.1693 12.0275 32.6589 13.3231 32.6016C14.6186 32.5443 15.8931 32.9437 16.9243 33.7301L124.928 115.64C125.743 116.259 126.716 116.638 127.736 116.735C128.755 116.831 129.782 116.641 130.699 116.186C131.616 115.73 132.389 115.028 132.928 114.158C133.468 113.287 133.755 112.284 133.755 111.259V111.601C133.75 113.161 133.306 114.687 132.474 116.007C131.643 117.326 130.456 118.384 129.052 119.061Z" fill="#007ACC"/>
<path d="M101.656 132.255C100.109 132.999 98.3685 133.244 96.6758 132.956C94.983 132.668 93.4213 131.862 92.2064 130.649C92.8886 131.322 93.7545 131.779 94.6954 131.963C95.6363 132.146 96.6105 132.048 97.4957 131.68C98.381 131.312 99.138 130.691 99.6719 129.895C100.206 129.099 100.493 128.163 100.497 127.204V6.67699C100.498 5.71388 100.213 4.7722 99.678 3.97124C99.1432 3.17028 98.3826 2.54608 97.4928 2.17771C96.6029 1.80934 95.6237 1.71338 94.6792 1.90198C93.7347 2.09059 92.8675 2.55526 92.1873 3.23716C93.4014 2.02248 94.9629 1.21504 96.6558 0.926497C98.3488 0.637956 100.09 0.882572 101.637 1.62652L129.028 14.7967C130.441 15.4714 131.635 16.5319 132.471 17.856C133.308 19.18 133.753 20.7136 133.755 22.2798V111.601C133.756 113.166 133.314 114.7 132.481 116.024C131.648 117.349 130.457 118.412 129.047 119.089L101.656 132.255Z" fill="#1F9CF0"/>
</svg>
