<svg width="134" height="124" viewBox="0 0 134 124" fill="none" xmlns="http://www.w3.org/2000/svg">
<path d="M127.371 7.97649e-06H36.6108C35.867 -0.000616271 35.1304 0.145266 34.443 0.429326C33.7556 0.713385 33.1308 1.13006 32.6045 1.65556C32.0781 2.18106 31.6604 2.80509 31.3752 3.49202C31.0899 4.17896 30.9428 4.91534 30.9422 5.65913V30.8852L83.5374 46.3278L133.044 30.8852V5.65913C133.043 4.91494 132.896 4.17817 132.611 3.49092C132.325 2.80368 131.907 2.17944 131.38 1.65388C130.853 1.12832 130.228 0.711741 129.54 0.427961C128.852 0.144181 128.115 -0.00124093 127.371 7.97649e-06Z" fill="#41A5EE"/>
<path d="M133.044 30.8852H30.9422V61.7704L83.5374 71.036L133.044 61.7704V30.8852Z" fill="#2B7CD3"/>
<path d="M30.9422 61.7704V92.6557L80.4441 98.8327L133.044 92.6557V61.7704H30.9422Z" fill="#185ABD"/>
<path d="M36.6108 123.541H127.366C128.11 123.543 128.848 123.398 129.537 123.114C130.225 122.831 130.851 122.414 131.378 121.889C131.906 121.363 132.324 120.739 132.61 120.051C132.896 119.364 133.043 118.626 133.044 117.882V92.6557H30.9422V117.882C30.9428 118.626 31.0899 119.362 31.3752 120.049C31.6604 120.736 32.0781 121.36 32.6045 121.885C33.1308 122.411 33.7556 122.828 34.443 123.112C35.1304 123.396 35.867 123.542 36.6108 123.541Z" fill="#103F91"/>
<path opacity="0.1" d="M68.5842 24.7082H30.9422V101.921H68.5842C70.0841 101.914 71.5206 101.316 72.5826 100.256C73.6445 99.197 74.2463 97.762 74.2575 96.2621V30.3673C74.2463 28.8674 73.6445 27.4323 72.5826 26.3731C71.5206 25.3138 70.0841 24.7156 68.5842 24.7082Z" fill="black"/>
<path opacity="0.2" d="M65.4909 27.7967H30.9422V105.01H65.4909C66.9908 105.002 68.4274 104.404 69.4893 103.345C70.5513 102.286 71.153 100.851 71.1643 99.3507V33.4559C71.153 31.956 70.5513 30.5209 69.4893 29.4616C68.4274 28.4024 66.9908 27.8042 65.4909 27.7967Z" fill="black"/>
<path opacity="0.2" d="M65.4909 27.7967H30.9422V98.8327H65.4909C66.9908 98.8253 68.4274 98.2271 69.4893 97.1678C70.5513 96.1086 71.153 94.6735 71.1643 93.1736V33.4559C71.153 31.956 70.5513 30.5209 69.4893 29.4616C68.4274 28.4024 66.9908 27.8042 65.4909 27.7967Z" fill="black"/>
<path opacity="0.2" d="M62.3976 27.7967H30.9422V98.8327H62.3976C63.8975 98.8253 65.3341 98.2271 66.396 97.1678C67.458 96.1086 68.0598 94.6735 68.071 93.1736V33.4559C68.0598 31.956 67.458 30.5209 66.396 29.4616C65.3341 28.4024 63.8975 27.8042 62.3976 27.7967Z" fill="black"/>
<path d="M5.67338 27.7967H62.3977C63.9002 27.7955 65.3419 28.3908 66.4057 29.452C67.4695 30.5132 68.0685 31.9533 68.071 33.4559V90.0851C68.0685 91.5877 67.4695 93.0278 66.4057 94.089C65.3419 95.1501 63.9002 95.7455 62.3977 95.7442H5.67338C4.92919 95.7455 4.19205 95.6001 3.50409 95.3163C2.81613 95.0325 2.19083 94.6159 1.66395 94.0904C1.13707 93.5648 0.718918 92.9406 0.433409 92.2533C0.147899 91.5661 0.000623274 90.8293 0 90.0851V33.4559C0.000623274 32.7117 0.147899 31.9749 0.433409 31.2877C0.718918 30.6004 1.13707 29.9762 1.66395 29.4506C2.19083 28.925 2.81613 28.5085 3.50409 28.2247C4.19205 27.9409 4.92919 27.7955 5.67338 27.7967Z" fill="url(#paint0_linear_1_18)"/>
<path d="M23.2827 71.2166C23.392 72.0908 23.468 72.8511 23.5013 73.5021H23.6343C23.6818 72.8844 23.7864 72.1384 23.9432 71.2688C24.1 70.3993 24.2378 69.6628 24.3661 69.0593L30.3293 43.3676H38.0458L44.2229 68.6745C44.5827 70.2399 44.8398 71.8271 44.9926 73.426H45.0972C45.2107 71.8695 45.4249 70.322 45.7386 68.7932L50.6755 43.3343H57.6936L49.0267 80.1495H40.8208L34.9431 55.7929C34.772 55.0897 34.5788 54.1742 34.3634 53.0465C34.148 51.9188 34.0149 51.0952 33.9642 50.5757H33.8645C33.7979 51.1744 33.6649 52.063 33.4653 53.2413C33.2658 54.4245 33.109 55.294 32.9902 55.8642L27.4641 80.1638H19.1203L10.4059 43.3676H17.5333L22.9073 69.1116C23.0677 69.8065 23.193 70.509 23.2827 71.2166Z" fill="white"/>
<defs>
<linearGradient id="paint0_linear_1_18" x1="11.8504" y1="23.3493" x2="56.2206" y2="100.192" gradientUnits="userSpaceOnUse">
<stop stop-color="#2368C4"/>
<stop offset="0.5" stop-color="#1A5DBE"/>
<stop offset="1" stop-color="#1146AC"/>
</linearGradient>
</defs>
</svg>
